<svg id="Icons" xmlns="http://www.w3.org/2000/svg" viewBox="0 0 512 512"><defs><style>.cls-1{fill:#29a3fb;}.cls-2{fill:#0989d8;}.cls-3{fill:#aacfe5;}.cls-4{fill:#cde6f6;}.cls-5{fill:#eef9ff;}.cls-6{fill:#c1552f;}.cls-7{fill:#ea792e;}.cls-8{fill:#fff;}.cls-9{fill:#f39e22;}.cls-10{fill:#f9c744;}.cls-11{fill:#6b250c;}.cls-12{fill:#9b2404;}</style></defs><title>019-beer-export</title><circle class="cls-1" cx="256" cy="256" r="256"/><path class="cls-2" d="M494.39,349.48C457.05,444.63,364.39,512,256,512S55,444.63,17.61,349.48Z"/><path class="cls-3" d="M325.92,164.7,313.63,337a13.4,13.4,0,0,1-13.37,12.44H211.12A13.4,13.4,0,0,1,197.75,337L186.08,164.68a5.48,5.48,0,0,1,5.46-5.84H320.46A5.47,5.47,0,0,1,325.92,164.7Z"/><path class="cls-4" d="M325.92,164.7,313.63,337a13.4,13.4,0,0,1-13.37,12.44H227.73A13.4,13.4,0,0,1,214.36,337L202.69,164.68a5.47,5.47,0,0,1,5.46-5.84H320.46A5.47,5.47,0,0,1,325.92,164.7Z"/><path class="cls-5" d="M314.57,202.2h0a8.08,8.08,0,0,1,8.06,8.65l-3.5,49a8.06,8.06,0,0,1-8.05,7.5h0a8.08,8.08,0,0,1-8.06-8.65l3.5-49A8.07,8.07,0,0,1,314.57,202.2Z"/><path class="cls-5" d="M309.12,278.65h0a8.08,8.08,0,0,1,8.06,8.65l-.79,11a8.07,8.07,0,0,1-8.05,7.5h0a8.08,8.08,0,0,1-8.06-8.65l.78-11A8.07,8.07,0,0,1,309.12,278.65Z"/><path class="cls-6" d="M307.42,197l-9,126.74a9.86,9.86,0,0,1-9.83,9.15H223a9.87,9.87,0,0,1-9.83-9.19L204.58,197Z"/><ellipse class="cls-7" cx="288.81" cy="234.06" rx="20.12" ry="11.4" transform="translate(37.65 508.14) rotate(-86.52)"/><ellipse class="cls-7" cx="286.58" cy="270.84" rx="12.55" ry="7.11" transform="translate(-1.16 540.45) rotate(-86.52)"/><path class="cls-8" d="M307.42,197H204.58a14.11,14.11,0,0,1,19.07-13.24,14.13,14.13,0,0,1,28.15-.3,22,22,0,0,1,24.52-1.62,10.94,10.94,0,1,1,21.34,4.28A11,11,0,0,1,307.42,197Z"/><circle class="cls-8" cx="242.25" cy="197.03" r="6.1"/><circle class="cls-8" cx="267.14" cy="216.95" r="6.1"/><circle class="cls-8" cx="250.88" cy="234.97" r="7.25"/><circle class="cls-8" cx="263.65" cy="263.53" r="9.37"/><circle class="cls-8" cx="221.74" cy="216.01" r="9.37"/><circle class="cls-8" cx="282.4" cy="200.31" r="9.37"/><circle class="cls-8" cx="270.4" cy="295.25" r="6.1"/><circle class="cls-8" cx="226" cy="254.16" r="6.1"/><circle class="cls-8" cx="240.49" cy="310.74" r="7.85"/><path class="cls-3" d="M173.44,164.7,161.14,337a13.39,13.39,0,0,1-13.36,12.44H58.63A13.4,13.4,0,0,1,45.27,337L33.59,164.68a5.48,5.48,0,0,1,5.47-5.84H168A5.48,5.48,0,0,1,173.44,164.7Z"/><path class="cls-4" d="M173.44,164.7,161.14,337a13.39,13.39,0,0,1-13.36,12.44H75.24A13.38,13.38,0,0,1,61.88,337L50.2,164.68a5.47,5.47,0,0,1,5.47-5.84H168A5.48,5.48,0,0,1,173.44,164.7Z"/><path class="cls-5" d="M162.09,202.2h0a8.07,8.07,0,0,1,8,8.65l-3.49,49a8.07,8.07,0,0,1-8.06,7.5h0a8.07,8.07,0,0,1-8.05-8.65l3.49-49A8.08,8.08,0,0,1,162.09,202.2Z"/><path class="cls-5" d="M156.64,278.65h0a8.07,8.07,0,0,1,8.05,8.65l-.78,11a8.08,8.08,0,0,1-8.06,7.5h0a8.07,8.07,0,0,1-8-8.65l.78-11A8.07,8.07,0,0,1,156.64,278.65Z"/><path class="cls-9" d="M154.93,197l-9,126.74a9.86,9.86,0,0,1-9.83,9.15H70.51a9.86,9.86,0,0,1-9.83-9.19L52.09,197Z"/><ellipse class="cls-10" cx="136.33" cy="234.06" rx="20.12" ry="11.4" transform="translate(-105.58 355.93) rotate(-86.52)"/><ellipse class="cls-10" cx="134.09" cy="270.84" rx="12.55" ry="7.11" transform="translate(-144.39 388.24) rotate(-86.52)"/><path class="cls-8" d="M154.94,197H52.09a14.11,14.11,0,0,1,19.07-13.24,14.14,14.14,0,0,1,28.16-.3,22,22,0,0,1,24.52-1.62,10.94,10.94,0,0,1,21.83,1,10.64,10.64,0,0,1-.5,3.26A11,11,0,0,1,154.94,197Z"/><circle class="cls-8" cx="89.76" cy="197.03" r="6.1"/><circle class="cls-8" cx="114.66" cy="216.95" r="6.1"/><circle class="cls-8" cx="98.39" cy="234.97" r="7.25"/><circle class="cls-8" cx="111.17" cy="263.53" r="9.37"/><circle class="cls-8" cx="69.26" cy="216.01" r="9.37"/><circle class="cls-8" cx="129.91" cy="200.31" r="9.37"/><circle class="cls-8" cx="117.92" cy="295.25" r="6.1"/><circle class="cls-8" cx="73.52" cy="254.16" r="6.1"/><circle class="cls-8" cx="88.01" cy="310.74" r="7.85"/><path class="cls-3" d="M478.41,164.7,466.11,337a13.39,13.39,0,0,1-13.36,12.44H363.6A13.4,13.4,0,0,1,350.24,337L338.56,164.68a5.48,5.48,0,0,1,5.47-5.84H472.94A5.48,5.48,0,0,1,478.41,164.7Z"/><path class="cls-4" d="M478.41,164.7,466.11,337a13.39,13.39,0,0,1-13.36,12.44H380.21A13.38,13.38,0,0,1,366.85,337L355.17,164.68a5.47,5.47,0,0,1,5.47-5.84h112.3A5.48,5.48,0,0,1,478.41,164.7Z"/><path class="cls-5" d="M467.06,202.2h0a8.07,8.07,0,0,1,8.05,8.65l-3.49,49a8.07,8.07,0,0,1-8.06,7.5h0a8.07,8.07,0,0,1-8.05-8.65l3.49-49A8.08,8.08,0,0,1,467.06,202.2Z"/><path class="cls-5" d="M461.6,278.65h0a8.07,8.07,0,0,1,8.06,8.65l-.78,11a8.08,8.08,0,0,1-8.06,7.5h0a8.07,8.07,0,0,1-8.05-8.65l.78-11A8.07,8.07,0,0,1,461.6,278.65Z"/><path class="cls-11" d="M459.9,197l-9,126.74a9.86,9.86,0,0,1-9.83,9.15H375.48a9.86,9.86,0,0,1-9.83-9.19L357.06,197Z"/><ellipse class="cls-12" cx="441.3" cy="234.06" rx="20.12" ry="11.4" transform="translate(180.88 660.34) rotate(-86.52)"/><ellipse class="cls-12" cx="439.06" cy="270.84" rx="12.55" ry="7.11" transform="translate(142.07 692.65) rotate(-86.52)"/><path class="cls-8" d="M459.91,197H357.06a14.11,14.11,0,0,1,19.07-13.24,14.14,14.14,0,0,1,28.16-.3,22,22,0,0,1,24.52-1.62,10.94,10.94,0,0,1,21.83,1,10.64,10.64,0,0,1-.5,3.26A11,11,0,0,1,459.91,197Z"/><circle class="cls-8" cx="394.73" cy="197.03" r="6.1"/><circle class="cls-8" cx="419.63" cy="216.95" r="6.1"/><circle class="cls-8" cx="403.36" cy="234.97" r="7.25"/><circle class="cls-8" cx="416.14" cy="263.53" r="9.37"/><circle class="cls-8" cx="374.23" cy="216.01" r="9.37"/><circle class="cls-8" cx="434.88" cy="200.31" r="9.37"/><circle class="cls-8" cx="422.89" cy="295.25" r="6.1"/><circle class="cls-8" cx="378.49" cy="254.16" r="6.1"/><circle class="cls-8" cx="392.98" cy="310.74" r="7.85"/></svg>